<svg version="1.1" id="Layer_1" xmlns="http://www.w3.org/2000/svg" xmlns:xlink="http://www.w3.org/1999/xlink" x="0px" y="0px"
	 width="100%" viewBox="0 0 545 554" enable-background="new 0 0 545 554" xml:space="preserve">
<path fill="#FFFFFF" opacity="0.000000" stroke="none" 
	d="
M401.000000,555.000000 
	C267.666656,555.000000 134.333313,555.000000 1.000000,555.000000 
	C1.000000,540.909607 1.000000,526.923462 1.333092,512.566895 
	C12.012391,526.968872 25.625265,529.345215 46.796368,520.376953 
	C52.133873,527.262573 59.401398,522.246033 64.945068,524.255920 
	C64.608612,519.629395 64.092247,515.447510 64.041740,511.260010 
	C63.915283,500.774719 64.289948,490.276245 63.904926,479.803589 
	C63.615200,471.922943 61.348675,464.777771 53.858967,460.265839 
	C43.779583,454.193878 23.864937,453.888123 13.126939,461.611145 
	C7.590367,465.593201 3.030458,470.911469 3.160533,478.998016 
	C8.408754,478.998016 13.386617,479.096069 18.354424,478.916260 
	C19.362755,478.879761 20.727238,478.033813 21.258825,477.156036 
	C25.609289,469.972473 35.995747,468.781494 42.909336,472.024963 
	C47.103226,473.992584 47.394409,478.080719 43.228687,479.774109 
	C38.950226,481.513367 34.198097,482.315613 29.573809,482.925903 
	C21.314163,484.016022 13.009696,484.716827 6.044038,489.996552 
	C4.333787,491.292908 2.679834,492.663513 1.000000,494.000000 
	C1.000000,329.790710 1.000000,165.581406 1.000000,1.000000 
	C29.686489,1.000000 58.374584,1.000000 87.355606,1.358553 
	C85.402618,2.145783 83.123184,2.446060 80.915848,3.022448 
	C49.044384,11.344822 23.580143,28.241362 9.798992,59.067265 
	C5.566162,68.535332 3.754747,79.332123 2.359974,89.725197 
	C1.592812,95.441666 4.178105,101.561157 4.941681,107.538574 
	C7.434867,127.055702 15.051223,144.591965 25.510473,161.005142 
	C37.186882,179.328323 51.373074,195.479065 67.986809,209.510727 
	C77.795731,217.795135 87.060066,226.779846 97.278442,234.512543 
	C119.330185,251.200119 143.397812,264.763000 167.510681,278.208588 
	C174.062683,281.862030 181.512314,284.755341 186.662537,289.890503 
	C196.410873,299.610413 204.724823,310.760010 213.796555,321.174652 
	C215.706345,323.367157 218.038483,325.674011 220.654953,326.670105 
	C226.417191,328.863831 232.591080,329.956970 238.408661,332.028198 
	C257.426331,338.799042 276.644623,345.133575 295.211456,352.992676 
	C305.287628,357.257812 314.199677,364.273193 324.127808,370.348450 
	C329.074554,366.313538 331.812958,359.749756 332.819031,352.798553 
	C334.860748,338.691437 330.524780,326.250061 320.871582,315.459442 
	C326.830109,316.746643 332.337341,318.481598 337.908569,319.978271 
	C360.586334,326.070557 383.798798,329.521027 407.124451,330.675293 
	C425.243652,331.571899 443.722076,331.158478 461.647949,328.587891 
	C487.099640,324.938080 509.934509,314.562988 527.740234,294.877502 
	C536.816589,284.843018 541.557983,273.029572 542.862305,259.958160 
	C544.248962,246.060959 542.468567,232.332718 536.943237,219.351227 
	C532.822510,209.669739 527.804321,200.461014 520.311584,192.889862 
	C516.985657,189.529160 513.280457,190.186111 511.318695,194.352493 
	C510.351990,196.405579 509.653900,198.599396 508.983734,200.775558 
	C504.562744,215.131485 500.218140,229.536026 491.912750,242.267807 
	C484.802887,253.166916 475.729950,261.886810 464.000000,266.875610 
	C464.000000,257.404053 464.470032,248.106277 463.830963,238.885376 
	C463.420624,232.964645 461.874512,226.976715 459.843781,221.379425 
	C458.910522,218.807159 455.915436,216.062057 453.279572,215.238892 
	C449.067627,213.923508 447.408997,217.938797 446.009827,221.105804 
	C440.596130,233.359604 432.692139,243.742828 422.809601,252.714752 
	C415.754669,259.119568 407.328430,263.043365 398.408966,267.096222 
	C398.896881,264.217224 399.484528,262.004333 399.615234,259.764740 
	C400.239716,249.065521 401.144806,238.309525 396.928223,228.032639 
	C394.891907,223.069534 389.749176,222.489609 386.631317,226.883835 
	C385.127655,229.003098 383.827301,231.314468 382.755524,233.683868 
	C378.618195,242.830338 371.810181,249.544495 363.655060,255.072891 
	C346.738525,266.540771 327.600220,271.123749 307.613861,271.776489 
	C298.027832,272.089569 288.353821,270.122406 278.740936,269.005005 
	C274.692505,268.534424 270.699005,267.591309 265.398621,266.630676 
	C270.271851,272.206238 274.167267,276.663055 278.062714,281.119873 
	C276.231750,281.047089 274.843658,280.627502 273.644836,279.897217 
	C251.100571,266.163696 229.812347,250.806198 211.828186,231.291397 
	C200.396484,218.886719 190.833313,205.184555 186.520844,188.672104 
	C184.918442,182.536438 184.533218,175.752533 185.212616,169.438538 
	C185.985794,162.252686 188.867447,155.318329 190.229797,148.159927 
	C190.829865,145.006912 191.140335,140.383133 189.381271,138.607178 
	C187.724701,136.934738 182.752686,137.101913 179.972580,138.244339 
	C169.634933,142.492371 162.216248,150.651062 155.091492,158.908356 
	C151.781570,162.744415 149.128067,167.146866 145.813797,171.802795 
	C134.249405,148.469162 131.377716,125.189926 137.556473,100.852737 
	C139.156235,94.551422 140.864334,88.244560 141.867752,81.837669 
	C142.441345,78.175087 139.764923,75.520020 136.131927,76.154625 
	C131.390244,76.982910 126.326744,78.071892 122.306961,80.529419 
	C110.972061,87.459137 101.434105,96.533447 93.801735,107.512497 
	C91.284973,111.132805 88.624435,114.653168 85.863960,118.446915 
	C75.807625,93.945969 77.324844,70.351410 86.990486,47.024296 
	C90.925529,37.527451 95.627388,28.346453 99.500175,18.826410 
	C101.784180,13.211927 106.431679,7.659559 102.000000,1.000000 
	C249.928040,1.000000 397.856079,1.000000 546.000000,1.000000 
	C546.000000,152.687500 546.000000,304.375092 545.531860,456.531342 
	C539.806580,457.000000 534.549377,457.000000 528.804688,457.000000 
	C528.804688,452.311829 528.804688,448.245300 528.804688,444.216980 
	C526.023865,444.216980 523.748840,444.216980 520.979858,444.216980 
	C520.979858,448.482910 520.979858,452.556763 520.979858,457.102234 
	C517.754028,457.102234 515.024048,457.102234 512.345215,457.102234 
	C512.345215,460.000977 512.345215,462.390839 512.345215,465.093140 
	C515.294128,465.093140 517.899780,465.093140 521.000000,465.093140 
	C521.000000,477.839630 520.739441,490.273590 521.085876,502.690643 
	C521.343689,511.929718 524.747986,519.830017 534.319946,522.948120 
	C537.943054,524.128357 542.091187,523.696838 546.000000,524.000000 
	C546.000000,534.304993 546.000000,544.609985 546.000000,555.000000 
	C503.312469,555.000000 460.624908,555.000000 417.622253,554.646729 
	C431.320160,552.002258 441.983582,539.418762 441.995483,525.102600 
	C442.012909,504.119568 442.000000,483.136536 442.000000,462.153503 
	C442.000000,460.544037 442.000000,458.934601 442.000000,457.323364 
	C439.023285,457.323364 436.622894,457.323364 434.197144,457.323364 
	C434.034119,460.030212 433.890320,462.418060 433.649597,466.414795 
	C425.268372,458.123291 416.162231,454.911377 405.640747,455.983124 
	C394.711853,457.096375 386.483032,462.630402 381.106110,471.889099 
	C371.158630,489.018036 375.548920,508.214233 388.142731,518.303833 
	C402.640137,529.918640 420.569092,528.224609 433.244446,515.239441 
	C432.903320,521.240967 433.291809,526.365967 432.193024,531.149414 
	C430.153534,540.028137 423.344452,544.197693 415.016113,546.538269 
	C405.675140,549.163574 392.351685,544.370850 388.647888,535.930542 
	C386.225586,530.410522 382.705811,530.490295 376.760986,531.662415 
	C379.734192,536.666138 381.541779,541.929321 385.149445,545.217407 
	C389.658997,549.327515 395.649078,551.813110 401.000000,555.000000 
M235.009674,479.638733 
	C229.728271,460.573547 211.461624,451.806274 192.785660,457.306610 
	C174.681900,462.638458 165.682327,479.704834 169.462189,498.314484 
	C173.347794,517.444763 189.600601,529.540710 212.450729,524.914185 
	C223.475067,522.682068 234.987305,512.199097 234.451080,502.000000 
	C229.991150,502.000000 225.504944,502.162781 221.037842,501.940948 
	C218.207230,501.800415 216.438568,502.643341 214.450272,504.851440 
	C210.383438,509.367950 205.065674,511.263184 198.918869,509.424011 
	C192.535995,507.514252 188.998550,503.817932 187.879715,497.741699 
	C204.189194,497.741699 220.436523,497.741699 237.748672,497.741699 
	C236.820190,491.658478 235.966064,486.062500 235.009674,479.638733 
M274.234863,525.998901 
	C280.328064,523.935425 287.166992,523.002319 292.361053,519.575867 
	C303.567505,512.182922 304.844727,492.745300 290.207825,486.720825 
	C286.480042,485.186523 282.568665,484.010132 278.647522,483.056000 
	C273.602142,481.828308 268.419250,481.157104 263.391815,479.870178 
	C262.089966,479.536957 260.106506,477.593475 260.273346,476.755280 
	C260.552795,475.351257 262.093262,473.567322 263.480499,473.123840 
	C269.457458,471.213135 275.386932,470.658051 280.131592,476.142120 
	C280.495117,476.562317 281.175842,476.937439 281.713043,476.942810 
	C287.425354,477.000153 293.138489,476.978394 300.287750,476.978394 
	C297.704468,472.315063 296.165192,468.538239 293.779358,465.406219 
	C284.587738,453.339813 261.266266,453.716095 250.380707,460.976227 
	C243.952301,465.263702 241.008835,471.393036 241.347107,478.345886 
	C241.821854,488.103577 248.680740,492.989746 257.709351,495.014374 
	C264.049988,496.436218 270.513184,497.398071 276.740692,499.193115 
	C279.058929,499.861389 280.862671,502.314606 282.901031,503.953888 
	C280.796967,505.628235 278.804932,508.540985 276.567657,508.743408 
	C269.997345,509.337891 262.904053,510.224701 258.501587,503.140717 
	C258.142303,502.562653 257.143250,502.081604 256.433105,502.070099 
	C251.007690,501.982025 245.580200,502.021759 239.623550,502.021759 
	C240.867966,509.252045 243.293335,514.947632 248.821045,518.955872 
	C256.127625,524.253967 264.432098,526.161682 274.234863,525.998901 
M115.761406,460.046539 
	C105.931923,466.159668 100.413742,475.246887 99.108337,486.474304 
	C96.996887,504.634430 107.786438,522.061401 127.428711,525.364807 
	C142.454971,527.891846 162.522003,520.100525 165.702576,500.909027 
	C157.178040,501.963318 147.504318,497.612701 141.174454,507.211487 
	C140.879822,507.658325 140.057129,507.789398 139.455948,507.996857 
	C128.952484,511.621277 121.143723,506.421173 117.342728,494.789185 
	C115.497139,489.141266 119.294197,478.114502 126.537186,474.203400 
	C132.304520,471.089172 137.909683,470.801544 144.421402,477.844055 
	C145.594330,479.112579 147.184311,480.752075 148.666779,480.843628 
	C154.356094,481.194977 160.080032,480.985870 165.936279,480.985870 
	C159.929169,455.402283 132.945709,451.238708 115.761406,460.046539 
M91.000000,505.499359 
	C91.000000,479.751129 91.000000,454.002899 91.000000,428.387787 
	C84.925125,428.387787 79.532219,428.387787 74.249504,428.387787 
	C74.249504,460.372223 74.249504,491.968323 74.249504,523.700684 
	C79.890778,523.700684 85.278008,523.700684 91.000000,523.700684 
	C91.000000,517.770691 91.000000,512.134705 91.000000,505.499359 
M502.000000,493.546997 
	C502.000000,503.636963 502.000000,513.726929 502.000000,523.781250 
	C504.974487,523.781250 507.251740,523.781250 509.983765,523.781250 
	C509.983765,509.958191 510.443329,496.324921 509.758331,482.749420 
	C509.483032,477.292877 507.768188,471.274719 504.839813,466.711365 
	C497.544434,455.342743 486.272858,454.540344 474.886932,456.767151 
	C470.167358,457.690216 465.801331,460.421326 460.954895,462.464996 
	C460.954895,451.566528 460.954895,440.497711 460.954895,429.286743 
	C458.127838,429.286743 455.740997,429.286743 453.304871,429.286743 
	C453.304871,460.953003 453.304871,492.332001 453.304871,523.640015 
	C456.011169,523.640015 458.394501,523.640015 461.000000,523.640015 
	C461.000000,510.640625 460.939819,497.999115 461.017853,485.358429 
	C461.088226,473.955627 467.257965,466.447754 477.740173,464.355927 
	C488.420258,462.224579 497.700195,465.689667 500.747864,477.834473 
	C501.931763,482.552155 501.626770,487.643463 502.000000,493.546997 
M314.034210,440.831421 
	C312.709839,446.138855 311.385468,451.446320 309.964996,457.138855 
	C307.986755,457.138855 305.709442,457.138855 303.282166,457.138855 
	C303.282166,459.867920 303.282166,462.262421 303.282166,464.806854 
	C305.952515,464.965210 308.356750,465.107788 311.234009,465.278412 
	C311.234009,485.063812 311.234009,504.461273 311.234009,523.753418 
	C314.021210,523.753418 316.298248,523.753418 319.081360,523.753418 
	C319.081360,504.120544 319.081360,484.726318 319.081360,464.833740 
	C324.990936,464.833740 330.395538,464.833740 335.789124,464.833740 
	C335.789124,462.045898 335.789124,459.768402 335.789124,456.822205 
	C330.100616,456.822205 324.604584,456.822205 319.206573,456.822205 
	C319.741302,445.605255 323.412567,437.921692 335.616730,438.818085 
	C335.616730,435.906158 335.616730,433.516968 335.616730,431.197571 
	C326.539856,430.101105 319.570099,433.057251 314.034210,440.831421 
M351.000000,455.500000 
	C351.000000,446.734741 351.000000,437.969513 351.000000,429.209045 
	C348.049316,429.209045 345.771820,429.209045 343.252838,429.209045 
	C343.252838,460.809052 343.252838,492.200378 343.252838,523.697388 
	C345.902344,523.697388 348.289093,523.697388 351.000000,523.697388 
	C351.000000,501.097748 351.000000,478.798889 351.000000,455.500000 
M369.000000,518.375305 
	C369.000000,497.963989 369.000000,477.552704 369.000000,457.254761 
	C365.959503,457.254761 363.684509,457.254761 361.298645,457.254761 
	C361.298645,479.572327 361.298645,501.634338 361.298645,523.833252 
	C363.874664,523.833252 366.151703,523.833252 368.744324,523.833252 
	C368.834625,522.247009 368.917328,520.794922 369.000000,518.375305 
M369.000000,443.454071 
	C369.000000,440.698700 369.000000,437.943298 369.000000,435.235931 
	C366.013000,435.235931 363.743286,435.235931 361.281128,435.235931 
	C361.281128,440.190552 361.281128,444.907562 361.281128,449.663574 
	C363.951385,449.663574 366.331970,449.663574 369.000000,449.663574 
	C369.000000,447.694580 369.000000,446.053009 369.000000,443.454071 
z"/>
<path fill="#2794D8" opacity="1.000000" stroke="none" 
	d="
M101.535355,1.000000 
	C106.431679,7.659559 101.784180,13.211927 99.500175,18.826410 
	C95.627388,28.346453 90.925529,37.527451 86.990486,47.024296 
	C77.324844,70.351410 75.807625,93.945969 85.863960,118.446915 
	C88.624435,114.653168 91.284973,111.132805 93.801735,107.512497 
	C101.434105,96.533447 110.972061,87.459137 122.306961,80.529419 
	C126.326744,78.071892 131.390244,76.982910 136.131927,76.154625 
	C139.764923,75.520020 142.441345,78.175087 141.867752,81.837669 
	C140.864334,88.244560 139.156235,94.551422 137.556473,100.852737 
	C131.377716,125.189926 134.249405,148.469162 145.813797,171.802795 
	C149.128067,167.146866 151.781570,162.744415 155.091492,158.908356 
	C162.216248,150.651062 169.634933,142.492371 179.972580,138.244339 
	C182.752686,137.101913 187.724701,136.934738 189.381271,138.607178 
	C191.140335,140.383133 190.829865,145.006912 190.229797,148.159927 
	C188.867447,155.318329 185.985794,162.252686 185.212616,169.438538 
	C184.533218,175.752533 184.918442,182.536438 186.520844,188.672104 
	C190.833313,205.184555 200.396484,218.886719 211.828186,231.291397 
	C229.812347,250.806198 251.100571,266.163696 273.644836,279.897217 
	C274.843658,280.627502 276.231750,281.047089 278.062714,281.119873 
	C274.167267,276.663055 270.271851,272.206238 265.398621,266.630676 
	C270.699005,267.591309 274.692505,268.534424 278.740936,269.005005 
	C288.353821,270.122406 298.027832,272.089569 307.613861,271.776489 
	C327.600220,271.123749 346.738525,266.540771 363.655060,255.072891 
	C371.810181,249.544495 378.618195,242.830338 382.755524,233.683868 
	C383.827301,231.314468 385.127655,229.003098 386.631317,226.883835 
	C389.749176,222.489609 394.891907,223.069534 396.928223,228.032639 
	C401.144806,238.309525 400.239716,249.065521 399.615234,259.764740 
	C399.484528,262.004333 398.896881,264.217224 398.408966,267.096222 
	C407.328430,263.043365 415.754669,259.119568 422.809601,252.714752 
	C432.692139,243.742828 440.596130,233.359604 446.009827,221.105804 
	C447.408997,217.938797 449.067627,213.923508 453.279572,215.238892 
	C455.915436,216.062057 458.910522,218.807159 459.843781,221.379425 
	C461.874512,226.976715 463.420624,232.964645 463.830963,238.885376 
	C464.470032,248.106277 464.000000,257.404053 464.000000,266.875610 
	C475.729950,261.886810 484.802887,253.166916 491.912750,242.267807 
	C500.218140,229.536026 504.562744,215.131485 508.983734,200.775558 
	C509.653900,198.599396 510.351990,196.405579 511.318695,194.352493 
	C513.280457,190.186111 516.985657,189.529160 520.311584,192.889862 
	C527.804321,200.461014 532.822510,209.669739 536.943237,219.351227 
	C542.468567,232.332718 544.248962,246.060959 542.862305,259.958160 
	C541.557983,273.029572 536.816589,284.843018 527.740234,294.877502 
	C509.934509,314.562988 487.099640,324.938080 461.647949,328.587891 
	C443.722076,331.158478 425.243652,331.571899 407.124451,330.675293 
	C383.798798,329.521027 360.586334,326.070557 337.908569,319.978271 
	C332.337341,318.481598 326.830109,316.746643 320.871582,315.459442 
	C330.524780,326.250061 334.860748,338.691437 332.819031,352.798553 
	C331.812958,359.749756 329.074554,366.313538 324.127808,370.348450 
	C314.199677,364.273193 305.287628,357.257812 295.211456,352.992676 
	C276.644623,345.133575 257.426331,338.799042 238.408661,332.028198 
	C232.591080,329.956970 226.417191,328.863831 220.654953,326.670105 
	C218.038483,325.674011 215.706345,323.367157 213.796555,321.174652 
	C204.724823,310.760010 196.410873,299.610413 186.662537,289.890503 
	C181.512314,284.755341 174.062683,281.862030 167.510681,278.208588 
	C143.397812,264.763000 119.330185,251.200119 97.278442,234.512543 
	C87.060066,226.779846 77.795731,217.795135 67.986809,209.510727 
	C51.373074,195.479065 37.186882,179.328323 25.510473,161.005142 
	C15.051223,144.591965 7.434867,127.055702 4.941681,107.538574 
	C4.178105,101.561157 1.592812,95.441666 2.359974,89.725197 
	C3.754747,79.332123 5.566162,68.535332 9.798992,59.067265 
	C23.580143,28.241362 49.044384,11.344822 80.915848,3.022448 
	C83.123184,2.446060 85.402618,2.145783 87.824265,1.358553 
	C92.356903,1.000000 96.713799,1.000000 101.535355,1.000000 
z"/>
<path fill="#586674" opacity="1.000000" stroke="none" 
	d="
M1.000000,494.467957 
	C2.679834,492.663513 4.333787,491.292908 6.044038,489.996552 
	C13.009696,484.716827 21.314163,484.016022 29.573809,482.925903 
	C34.198097,482.315613 38.950226,481.513367 43.228687,479.774109 
	C47.394409,478.080719 47.103226,473.992584 42.909336,472.024963 
	C35.995747,468.781494 25.609289,469.972473 21.258825,477.156036 
	C20.727238,478.033813 19.362755,478.879761 18.354424,478.916260 
	C13.386617,479.096069 8.408754,478.998016 3.160533,478.998016 
	C3.030458,470.911469 7.590367,465.593201 13.126939,461.611145 
	C23.864937,453.888123 43.779583,454.193878 53.858967,460.265839 
	C61.348675,464.777771 63.615200,471.922943 63.904926,479.803589 
	C64.289948,490.276245 63.915283,500.774719 64.041740,511.260010 
	C64.092247,515.447510 64.608612,519.629395 64.945068,524.255920 
	C59.401398,522.246033 52.133873,527.262573 46.796368,520.376953 
	C25.625265,529.345215 12.012391,526.968872 1.333092,512.098267 
	C1.000000,506.311951 1.000000,500.623932 1.000000,494.467957 
M28.658806,509.987488 
	C30.907354,509.652222 33.180199,509.431641 35.400089,508.961151 
	C43.422489,507.260986 49.152313,501.632721 46.622688,493.921692 
	C43.088631,494.623413 39.611900,495.354523 36.118835,495.996796 
	C31.968719,496.759827 27.634647,496.970062 23.718143,498.367065 
	C21.759300,499.065765 19.498766,501.784302 19.338350,503.749573 
	C19.210781,505.312439 21.891373,507.339386 23.661366,508.733582 
	C24.711021,509.560394 26.412506,509.559631 28.658806,509.987488 
z"/>
<path fill="#586674" opacity="1.000000" stroke="none" 
	d="
M401.466858,555.000000 
	C395.649078,551.813110 389.658997,549.327515 385.149445,545.217407 
	C381.541779,541.929321 379.734192,536.666138 376.760986,531.662415 
	C382.705811,530.490295 386.225586,530.410522 388.647888,535.930542 
	C392.351685,544.370850 405.675140,549.163574 415.016113,546.538269 
	C423.344452,544.197693 430.153534,540.028137 432.193024,531.149414 
	C433.291809,526.365967 432.903320,521.240967 433.244446,515.239441 
	C420.569092,528.224609 402.640137,529.918640 388.142731,518.303833 
	C375.548920,508.214233 371.158630,489.018036 381.106110,471.889099 
	C386.483032,462.630402 394.711853,457.096375 405.640747,455.983124 
	C416.162231,454.911377 425.268372,458.123291 433.649597,466.414795 
	C433.890320,462.418060 434.034119,460.030212 434.197144,457.323364 
	C436.622894,457.323364 439.023285,457.323364 442.000000,457.323364 
	C442.000000,458.934601 442.000000,460.544037 442.000000,462.153503 
	C442.000000,483.136536 442.012909,504.119568 441.995483,525.102600 
	C441.983582,539.418762 431.320160,552.002258 417.153595,554.646729 
	C411.977905,555.000000 406.955811,555.000000 401.466858,555.000000 
M428.577240,507.940704 
	C433.579498,501.629364 434.983368,494.271729 433.920746,486.585327 
	C432.166687,473.897278 423.717987,464.719238 410.276917,464.109314 
	C401.175049,463.696381 393.867584,467.752167 388.863373,475.544891 
	C382.407776,485.597748 382.376770,495.726166 388.470734,505.969238 
	C393.194000,513.908325 401.023132,517.304321 409.359253,517.644165 
	C416.516968,517.935974 423.390594,514.718811 428.577240,507.940704 
z"/>
<path fill="#586674" opacity="1.000000" stroke="none" 
	d="
M546.000000,523.555847 
	C542.091187,523.696838 537.943054,524.128357 534.319946,522.948120 
	C524.747986,519.830017 521.343689,511.929718 521.085876,502.690643 
	C520.739441,490.273590 521.000000,477.839630 521.000000,465.093140 
	C517.899780,465.093140 515.294128,465.093140 512.345215,465.093140 
	C512.345215,462.390839 512.345215,460.000977 512.345215,457.102234 
	C515.024048,457.102234 517.754028,457.102234 520.979858,457.102234 
	C520.979858,452.556763 520.979858,448.482910 520.979858,444.216980 
	C523.748840,444.216980 526.023865,444.216980 528.804688,444.216980 
	C528.804688,448.245300 528.804688,452.311829 528.804688,457.000000 
	C534.549377,457.000000 539.806580,457.000000 545.531860,457.000000 
	C546.000000,459.370575 546.000000,461.741119 545.531860,464.555847 
	C539.816711,465.000000 534.569702,465.000000 529.504822,465.000000 
	C529.233276,465.900543 529.062378,466.204071 529.061523,466.508026 
	C529.031189,477.291077 529.096497,488.075043 528.977417,498.856995 
	C528.859314,509.550659 533.617859,517.570129 546.000000,516.000000 
	C546.000000,518.370544 546.000000,520.741150 546.000000,523.555847 
z"/>
<path fill="#FFFFFF" opacity="0.000000" stroke="none" 
	d="
M546.000000,515.531372 
	C533.617859,517.570129 528.859314,509.550659 528.977417,498.856995 
	C529.096497,488.075043 529.031189,477.291077 529.061523,466.508026 
	C529.062378,466.204071 529.233276,465.900543 529.504822,465.000000 
	C534.569702,465.000000 539.816711,465.000000 545.531860,465.000000 
	C546.000000,481.687561 546.000000,498.375122 546.000000,515.531372 
z"/>
<path fill="#586674" opacity="1.000000" stroke="none" 
	d="
M235.060822,480.052612 
	C235.966064,486.062500 236.820190,491.658478 237.748672,497.741699 
	C220.436523,497.741699 204.189194,497.741699 187.879715,497.741699 
	C188.998550,503.817932 192.535995,507.514252 198.918869,509.424011 
	C205.065674,511.263184 210.383438,509.367950 214.450272,504.851440 
	C216.438568,502.643341 218.207230,501.800415 221.037842,501.940948 
	C225.504944,502.162781 229.991150,502.000000 234.451080,502.000000 
	C234.987305,512.199097 223.475067,522.682068 212.450729,524.914185 
	C189.600601,529.540710 173.347794,517.444763 169.462189,498.314484 
	C165.682327,479.704834 174.681900,462.638458 192.785660,457.306610 
	C211.461624,451.806274 229.728271,460.573547 235.060822,480.052612 
M217.564743,482.781189 
	C216.158981,476.343536 210.542969,472.031342 203.523788,472.000000 
	C195.770554,471.965393 189.804184,476.153320 188.284531,482.969116 
	C197.814026,482.969116 207.275574,482.969116 217.564743,482.781189 
z"/>
<path fill="#586674" opacity="1.000000" stroke="none" 
	d="
M273.777588,525.999451 
	C264.432098,526.161682 256.127625,524.253967 248.821045,518.955872 
	C243.293335,514.947632 240.867966,509.252045 239.623550,502.021759 
	C245.580200,502.021759 251.007690,501.982025 256.433105,502.070099 
	C257.143250,502.081604 258.142303,502.562653 258.501587,503.140717 
	C262.904053,510.224701 269.997345,509.337891 276.567657,508.743408 
	C278.804932,508.540985 280.796967,505.628235 282.901031,503.953888 
	C280.862671,502.314606 279.058929,499.861389 276.740692,499.193115 
	C270.513184,497.398071 264.049988,496.436218 257.709351,495.014374 
	C248.680740,492.989746 241.821854,488.103577 241.347107,478.345886 
	C241.008835,471.393036 243.952301,465.263702 250.380707,460.976227 
	C261.266266,453.716095 284.587738,453.339813 293.779358,465.406219 
	C296.165192,468.538239 297.704468,472.315063 300.287750,476.978394 
	C293.138489,476.978394 287.425354,477.000153 281.713043,476.942810 
	C281.175842,476.937439 280.495117,476.562317 280.131592,476.142120 
	C275.386932,470.658051 269.457458,471.213135 263.480499,473.123840 
	C262.093262,473.567322 260.552795,475.351257 260.273346,476.755280 
	C260.106506,477.593475 262.089966,479.536957 263.391815,479.870178 
	C268.419250,481.157104 273.602142,481.828308 278.647522,483.056000 
	C282.568665,484.010132 286.480042,485.186523 290.207825,486.720825 
	C304.844727,492.745300 303.567505,512.182922 292.361053,519.575867 
	C287.166992,523.002319 280.328064,523.935425 273.777588,525.999451 
z"/>
<path fill="#586674" opacity="1.000000" stroke="none" 
	d="
M116.134171,459.973816 
	C132.945709,451.238708 159.929169,455.402283 165.936279,480.985870 
	C160.080032,480.985870 154.356094,481.194977 148.666779,480.843628 
	C147.184311,480.752075 145.594330,479.112579 144.421402,477.844055 
	C137.909683,470.801544 132.304520,471.089172 126.537186,474.203400 
	C119.294197,478.114502 115.497139,489.141266 117.342728,494.789185 
	C121.143723,506.421173 128.952484,511.621277 139.455948,507.996857 
	C140.057129,507.789398 140.879822,507.658325 141.174454,507.211487 
	C147.504318,497.612701 157.178040,501.963318 165.702576,500.909027 
	C162.522003,520.100525 142.454971,527.891846 127.428711,525.364807 
	C107.786438,522.061401 96.996887,504.634430 99.108337,486.474304 
	C100.413742,475.246887 105.931923,466.159668 116.134171,459.973816 
z"/>
<path fill="#586674" opacity="1.000000" stroke="none" 
	d="
M91.000000,505.999023 
	C91.000000,512.134705 91.000000,517.770691 91.000000,523.700684 
	C85.278008,523.700684 79.890778,523.700684 74.249504,523.700684 
	C74.249504,491.968323 74.249504,460.372223 74.249504,428.387787 
	C79.532219,428.387787 84.925125,428.387787 91.000000,428.387787 
	C91.000000,454.002899 91.000000,479.751129 91.000000,505.999023 
z"/>
<path fill="#586674" opacity="1.000000" stroke="none" 
	d="
M502.000000,493.055786 
	C501.626770,487.643463 501.931763,482.552155 500.747864,477.834473 
	C497.700195,465.689667 488.420258,462.224579 477.740173,464.355927 
	C467.257965,466.447754 461.088226,473.955627 461.017853,485.358429 
	C460.939819,497.999115 461.000000,510.640625 461.000000,523.640015 
	C458.394501,523.640015 456.011169,523.640015 453.304871,523.640015 
	C453.304871,492.332001 453.304871,460.953003 453.304871,429.286743 
	C455.740997,429.286743 458.127838,429.286743 460.954895,429.286743 
	C460.954895,440.497711 460.954895,451.566528 460.954895,462.464996 
	C465.801331,460.421326 470.167358,457.690216 474.886932,456.767151 
	C486.272858,454.540344 497.544434,455.342743 504.839813,466.711365 
	C507.768188,471.274719 509.483032,477.292877 509.758331,482.749420 
	C510.443329,496.324921 509.983765,509.958191 509.983765,523.781250 
	C507.251740,523.781250 504.974487,523.781250 502.000000,523.781250 
	C502.000000,513.726929 502.000000,503.636963 502.000000,493.055786 
z"/>
<path fill="#586674" opacity="1.000000" stroke="none" 
	d="
M314.207397,440.485229 
	C319.570099,433.057251 326.539856,430.101105 335.616730,431.197571 
	C335.616730,433.516968 335.616730,435.906158 335.616730,438.818085 
	C323.412567,437.921692 319.741302,445.605255 319.206573,456.822205 
	C324.604584,456.822205 330.100616,456.822205 335.789124,456.822205 
	C335.789124,459.768402 335.789124,462.045898 335.789124,464.833740 
	C330.395538,464.833740 324.990936,464.833740 319.081360,464.833740 
	C319.081360,484.726318 319.081360,504.120544 319.081360,523.753418 
	C316.298248,523.753418 314.021210,523.753418 311.234009,523.753418 
	C311.234009,504.461273 311.234009,485.063812 311.234009,465.278412 
	C308.356750,465.107788 305.952515,464.965210 303.282166,464.806854 
	C303.282166,462.262421 303.282166,459.867920 303.282166,457.138855 
	C305.709442,457.138855 307.986755,457.138855 309.964996,457.138855 
	C311.385468,451.446320 312.709839,446.138855 314.207397,440.485229 
z"/>
<path fill="#586674" opacity="1.000000" stroke="none" 
	d="
M351.000000,456.000000 
	C351.000000,478.798889 351.000000,501.097748 351.000000,523.697388 
	C348.289093,523.697388 345.902344,523.697388 343.252838,523.697388 
	C343.252838,492.200378 343.252838,460.809052 343.252838,429.209045 
	C345.771820,429.209045 348.049316,429.209045 351.000000,429.209045 
	C351.000000,437.969513 351.000000,446.734741 351.000000,456.000000 
z"/>
<path fill="#586674" opacity="1.000000" stroke="none" 
	d="
M369.000000,518.859131 
	C368.917328,520.794922 368.834625,522.247009 368.744324,523.833252 
	C366.151703,523.833252 363.874664,523.833252 361.298645,523.833252 
	C361.298645,501.634338 361.298645,479.572327 361.298645,457.254761 
	C363.684509,457.254761 365.959503,457.254761 369.000000,457.254761 
	C369.000000,477.552704 369.000000,497.963989 369.000000,518.859131 
z"/>
<path fill="#2794D8" opacity="1.000000" stroke="none" 
	d="
M369.000000,443.932770 
	C369.000000,446.053009 369.000000,447.694580 369.000000,449.663574 
	C366.331970,449.663574 363.951385,449.663574 361.281128,449.663574 
	C361.281128,444.907562 361.281128,440.190552 361.281128,435.235931 
	C363.743286,435.235931 366.013000,435.235931 369.000000,435.235931 
	C369.000000,437.943298 369.000000,440.698700 369.000000,443.932770 
z"/>
<path fill="#FFFFFF" opacity="0.000000" stroke="none" 
	d="
M28.239851,509.959229 
	C26.412506,509.559631 24.711021,509.560394 23.661366,508.733582 
	C21.891373,507.339386 19.210781,505.312439 19.338350,503.749573 
	C19.498766,501.784302 21.759300,499.065765 23.718143,498.367065 
	C27.634647,496.970062 31.968719,496.759827 36.118835,495.996796 
	C39.611900,495.354523 43.088631,494.623413 46.622688,493.921692 
	C49.152313,501.632721 43.422489,507.260986 35.400089,508.961151 
	C33.180199,509.431641 30.907354,509.652222 28.239851,509.959229 
z"/>
<path fill="#FFFFFF" opacity="0.000000" stroke="none" 
	d="
M428.309937,508.191589 
	C423.390594,514.718811 416.516968,517.935974 409.359253,517.644165 
	C401.023132,517.304321 393.194000,513.908325 388.470734,505.969238 
	C382.376770,495.726166 382.407776,485.597748 388.863373,475.544891 
	C393.867584,467.752167 401.175049,463.696381 410.276917,464.109314 
	C423.717987,464.719238 432.166687,473.897278 433.920746,486.585327 
	C434.983368,494.271729 433.579498,501.629364 428.309937,508.191589 
z"/>
<path fill="#FFFFFF" opacity="0.000000" stroke="none" 
	d="
M217.150925,482.875153 
	C207.275574,482.969116 197.814026,482.969116 188.284531,482.969116 
	C189.804184,476.153320 195.770554,471.965393 203.523788,472.000000 
	C210.542969,472.031342 216.158981,476.343536 217.150925,482.875153 
z"/>
</svg>
